Results
version=1
nRows=9
nColumns=24
inDegrees=yes
endheader
time	pelvis_tilt	pelvis_list	pelvis_rotation	pelvis_tx	pelvis_ty	pelvis_tz	hip_flexion_r	hip_adduction_r	hip_rotation_r	knee_angle_r	ankle_angle_r	subtalar_angle_r	mtp_angle_r	hip_flexion_l	hip_adduction_l	hip_rotation_l	knee_angle_l	ankle_angle_l	subtalar_angle_l	mtp_angle_l	lumbar_extension	lumbar_bending	lumbar_rotation
      0.60000000	     -0.52048889	      5.47537785	      0.11476739	     -0.80897176	      0.98955515	      0.27429623	     25.22174130	     -4.49228691	     -3.86521285	     -6.18688505	      0.72197189	     -6.37449036	     15.12285008	    -18.61139944	      7.05034080	      4.68557015	     -7.76064242	      6.33862872	     -8.31484584	      9.54540057	     -5.36771705	     -6.40531474	     -3.50425627
      0.60416667	     -0.47424272	      5.37852047	      0.11520548	     -0.80250647	      0.98930007	      0.27492554	     25.17662337	     -4.37013714	     -3.81108895	     -6.83493889	      0.47314895	     -6.51699142	     15.11056638	    -18.66112702	      6.92462321	      4.66377639	     -8.49396990	      6.12781233	     -8.36494274	      9.56847893	     -5.36138870	     -6.25608866	     -3.51211874
      0.60833333	     -0.50000497	      5.28324808	      0.10965897	     -0.79599351	      0.98899501	      0.27564076	     25.15921088	     -4.22366482	     -3.56830945	     -7.39544522	      0.04228303	     -7.08401382	     15.06656236	    -18.57348186	      6.79298216	      4.49388323	     -9.34132554	      5.96624470	     -8.15913672	      9.77116508	     -5.22869203	     -6.09901650	     -3.56512082
      0.61250000	     -0.48051700	      5.18281154	      0.08750636	     -0.78944241	      0.98879346	      0.27634402	     25.11284289	     -4.07957670	     -3.45968213	     -8.01339458	     -0.39296819	     -7.33894512	     15.04643139	    -18.53106612	      6.66480186	      4.34449813	    -10.18359054	      5.67181458	     -8.05113813	      9.94180321	     -5.16568089	     -5.94096267	     -3.57143336
      0.61666667	     -0.45067345	      5.09150992	      0.05178153	     -0.78289672	      0.98862883	      0.27709321	     25.05977656	     -3.93659224	     -3.32762941	     -8.64961039	     -0.81095999	     -7.66900085	     15.03396444	    -18.45665574	      6.54600320	      4.13013765	    -11.10831645	      5.38444560	     -7.88512691	     10.17109435	     -5.10524375	     -5.79284609	     -3.57170994
      0.62083333	     -0.40893312	      4.99057040	      0.02425344	     -0.77633743	      0.98852374	      0.27786258	     24.97759189	     -3.78489244	     -3.20343833	     -9.27319982	     -1.19348922	     -8.02096960	     15.03100213	    -18.34429453	      6.40753566	      3.85577569	    -12.13225024	      5.11170319	     -7.65828387	     10.60645285	     -5.06206969	     -5.64108503	     -3.55105821
      0.62500000	     -0.34000449	      4.88826558	     -0.00944588	     -0.76975532	      0.98850994	      0.27861260	     24.88500132	     -3.64361249	     -3.20238420	     -9.94576137	     -1.59803216	     -8.15921044	     15.16237683	    -18.25032539	      6.26671544	      3.57958428	    -13.14594268	      4.63292334	     -7.52829317	     16.22335992	     -5.05722673	     -5.46902267	     -3.51011073
      0.62916667	     -0.31265433	      4.82083552	     -0.08280278	     -0.76319735	      0.98845474	      0.27945725	     24.84523624	     -3.51333356	     -3.07313963	    -10.62419034	     -1.97994119	     -8.37734242	     15.15985234	    -18.07455723	      6.17606320	      3.28171285	    -14.23329500	      4.18670827	     -7.40057332	     16.28205149	     -4.98817806	     -5.36803686	     -3.49759008
      0.63333333	     -0.25475547	      4.73539253	     -0.14763224	     -0.75664186	      0.98848714	      0.28030717	     24.76487658	     -3.37249245	     -3.00432875	    -11.30001182	     -2.36072146	     -8.55003816	     15.15981262	    -17.88471755	      6.05147816	      2.91954193	    -15.40444175	      3.72575389	     -7.14728538	     16.40688356	     -4.96240909	     -5.23461890	     -3.44742749
